<?xml version="1.0" standalone="no"?>
<!DOCTYPE svg PUBLIC "-//W3C//DTD SVG 20010904//EN"
 "http://www.w3.org/TR/2001/REC-SVG-20010904/DTD/svg10.dtd">
<svg version="1.0" xmlns="http://www.w3.org/2000/svg"
 width="700.000000pt" height="700.000000pt" viewBox="0 0 700.000000 700.000000"
 preserveAspectRatio="xMidYMid meet">
<metadata>
Created by potrace 1.14, written by Peter Selinger 2001-2017
</metadata>
<g transform="translate(0.000000,700.000000) scale(0.100000,-0.100000)"
fill="#000000" stroke="none">
<path d="M1737 6379 c-20 -5 -54 -17 -75 -28 -22 -11 -310 -292 -689 -671
-489 -489 -657 -664 -674 -698 -32 -66 -32 -178 -2 -245 18 -38 142 -168 592
-618 l569 -569 0 -1361 c1 -1289 2 -1364 19 -1412 25 -71 94 -142 165 -171
l56 -22 1809 0 1808 1 45 21 c87 40 147 109 170 193 8 30 11 423 11 1396 l1
1354 568 568 c432 433 573 580 588 614 42 92 38 193 -11 276 -10 18 -309 323
-665 678 -491 491 -659 653 -697 673 -40 20 -64 25 -125 25 -123 1 -125 -1
-570 -446 l-395 -395 -735 1 -735 0 -395 394 c-275 276 -409 402 -441 419 -53
26 -136 37 -192 23z"/>
</g>
</svg>
